{"glyphs":{":":{"x_min":0,"x_max":246,"ha":246,"o":"m 212 338 q 178 298 126 298 q 88 298 57 323 q 17 357 17 409 q 17 447 42 478 q 76 518 128 518 q 166 518 197 493 q 237 459 237 407 q 237 369 212 338 z m 202 60 q 170 27 124 27 q 81 27 48 58 q 16 89 16 135 q 16 178 47 210 q 78 243 124 243 q 167 243 200 212 q 232 181 232 135 q 232 92 202 60 z"},"$":{"x_min":0,"x_max":582,"ha":582,"o":"m 499 120 q 471 96 404 79 q 338 62 338 56 q 338 39 338 31 q 338 19 337 14 q 335 7 330 5 q 325 2 310 1 q 294 0 290 0 q 275 0 258 2 q 242 4 235 6 q 229 7 229 29 q 229 40 229 45 q 229 60 226 63 q 152 76 95 94 q 38 112 20 148 q 10 167 10 189 q 10 214 22 230 q 35 247 58 247 q 85 247 117 222 q 141 202 165 182 q 189 164 220 157 q 230 155 237 155 q 257 155 270 163 q 282 171 280 188 q 275 223 221 254 q 207 262 116 304 q 55 332 43 353 q 18 397 18 443 q 18 527 95 584 q 125 607 175 616 q 225 624 239 647 q 243 652 243 659 q 241 673 241 679 q 241 687 248 690 q 255 692 270 694 q 286 697 297 697 q 329 697 345 684 q 351 679 352 662 q 353 646 360 641 q 394 632 426 624 q 457 615 485 601 q 541 572 541 526 q 541 501 518 484 q 496 467 451 467 q 434 467 384 511 q 334 555 300 555 q 289 555 278 552 q 267 548 252 536 q 236 523 236 511 q 236 506 240 502 q 271 468 341 442 q 439 406 468 390 q 515 366 540 328 q 564 290 564 247 q 564 213 548 180 q 532 148 499 120 z"},"?":{"x_min":0,"x_max":529,"ha":529,"o":"m 514 574 q 514 567 515 558 q 516 550 516 545 q 516 456 448 396 q 381 337 232 303 q 234 298 236 288 q 238 277 238 265 q 238 246 227 245 q 213 244 178 252 q 144 260 130 266 q 109 275 109 310 q 109 324 114 338 q 119 353 128 361 q 155 385 213 414 q 296 455 296 508 q 296 551 276 570 q 255 590 224 590 q 208 590 194 585 q 179 580 168 572 q 164 568 125 489 q 95 427 39 427 q 26 427 18 428 q 10 429 -6 434 q -22 439 -22 463 q -22 509 25 567 q 81 637 171 670 q 243 697 319 697 q 399 697 453 666 q 507 634 514 574 z m 254 183 q 283 151 283 108 q 283 59 250 28 q 216 -2 173 -2 q 124 -2 94 32 q 63 65 63 108 q 63 157 96 188 q 130 218 173 218 q 222 218 254 183 z"},"'":{"x_min":0,"x_max":258,"ha":258,"o":"m 211 730 q 236 686 236 630 q 236 578 214 526 q 191 475 151 438 q 139 426 126 426 q 116 426 100 435 q 92 439 92 447 q 92 455 112 480 q 133 506 133 522 q 133 554 131 563 q 126 584 109 594 q 54 627 45 637 q 25 660 25 692 q 25 699 25 702 q 29 739 56 760 q 82 780 118 780 q 147 780 172 768 q 197 755 211 730 z"},"a":{"x_min":0,"x_max":634,"ha":634,"o":"m 615 114 q 619 106 619 96 q 619 67 579 41 q 539 15 471 0 q 457 -3 447 -3 q 424 -3 391 23 q 365 44 345 54 q 339 57 306 26 q 272 -6 249 -6 q 129 -6 81 23 q 55 39 33 84 q 18 117 18 150 q 18 219 71 264 q 135 318 261 318 q 274 317 280 317 q 296 317 305 322 q 314 327 322 348 q 330 368 330 394 q 330 428 314 452 q 298 475 267 475 q 259 475 250 474 q 242 472 199 408 q 178 377 152 372 q 126 366 104 366 q 78 366 66 378 q 54 390 54 423 q 54 452 68 472 q 81 492 130 516 q 180 541 218 550 q 257 558 315 558 q 450 558 506 494 q 555 438 555 315 l 555 180 q 555 147 583 135 q 611 123 615 114 z m 327 138 q 330 151 332 161 q 334 171 334 180 q 334 203 318 231 q 309 246 292 246 q 278 246 264 238 q 249 229 239 214 q 229 199 229 177 q 229 161 234 145 q 240 129 249 115 q 258 101 275 101 q 291 101 307 112 q 323 123 327 138 z"},"L":{"x_min":0,"x_max":731,"ha":731,"o":"m 671 255 q 713 255 732 233 q 751 211 751 173 q 751 126 726 72 q 700 18 668 -10 q 656 -21 646 -21 q 642 -21 620 -7 q 609 0 597 0 l 98 0 q 55 0 38 12 q 20 25 20 46 q 20 54 21 58 q 30 100 85 116 q 110 123 110 137 l 110 644 q 110 661 68 674 q 25 686 25 716 q 25 724 26 729 q 36 793 175 803 q 216 806 327 806 q 387 806 426 792 q 477 774 477 733 q 477 703 419 678 q 392 667 392 645 l 392 152 q 392 133 400 124 q 412 110 443 110 q 452 110 476 112 q 500 114 501 114 q 563 114 612 155 q 626 166 633 198 q 646 255 671 255 z"},"3":{"x_min":0,"x_max":662,"ha":662,"o":"m 635 255 q 637 243 637 233 q 637 223 637 213 q 637 113 570 49 q 524 5 448 -21 q 419 -31 378 -36 q 336 -41 292 -41 q 229 -41 174 -34 q 118 -28 89 -18 q 45 -3 23 19 q 1 41 1 65 q 1 90 20 106 q 40 121 73 121 q 78 121 92 119 q 139 106 174 98 q 209 91 235 91 q 279 91 303 111 q 332 135 332 190 q 332 218 313 238 q 301 251 267 270 q 256 277 237 277 q 225 277 204 273 q 183 269 174 269 q 153 269 142 285 q 127 312 127 341 q 127 373 148 383 q 181 394 215 406 q 267 430 267 466 q 267 514 247 534 q 227 555 193 555 q 173 555 154 551 q 136 547 92 529 q 88 527 81 527 q 70 527 63 539 q 56 551 56 569 q 56 607 80 627 q 116 657 178 675 q 239 693 305 693 q 373 693 434 673 q 494 653 534 612 q 549 596 558 574 q 566 552 566 529 q 566 483 538 446 q 510 409 463 401 q 527 394 578 350 q 629 307 635 255 z"},";":{"x_min":0,"x_max":258,"ha":258,"o":"m 210 336 q 179 287 120 287 q 103 287 91 290 q 79 293 63 303 q 14 334 14 393 q 14 410 17 422 q 20 434 30 450 q 61 499 120 499 q 137 499 149 496 q 161 493 177 483 q 226 452 226 393 q 226 376 223 364 q 220 352 210 336 z m 216 168 q 230 144 236 118 q 243 93 243 66 q 243 13 214 -49 q 199 -80 162 -138 q 149 -157 125 -157 q 106 -157 98 -146 q 89 -136 89 -124 q 89 -110 102 -96 q 115 -82 125 -60 q 135 -39 135 -20 q 135 0 123 9 q 95 23 81 32 q 37 61 32 82 q 26 103 26 121 q 26 150 38 172 q 51 195 78 210 q 97 221 124 221 q 185 221 216 168 z"},"J":{"x_min":0,"x_max":724,"ha":724,"o":"m 674 684 q 637 664 630 655 q 624 646 624 620 l 624 193 q 624 100 544 51 q 485 15 388 4 q 352 0 287 0 q 207 0 151 18 q 95 35 45 75 q 23 94 6 131 q -10 168 -10 206 q -10 242 5 272 q 20 301 54 320 q 66 326 87 332 q 108 338 129 338 q 171 338 199 318 q 234 293 246 238 q 249 223 249 211 q 249 199 246 183 q 243 167 243 162 q 243 148 256 140 q 269 132 286 132 q 312 132 333 148 q 354 163 354 186 l 354 617 q 354 641 319 657 q 276 677 266 690 q 257 703 257 720 q 257 762 301 783 q 320 792 380 800 q 441 808 508 808 q 596 808 657 792 q 679 786 688 771 q 698 756 698 735 q 698 698 674 684 z"},"V":{"x_min":0,"x_max":923,"ha":923,"o":"m 928 718 q 921 699 880 697 q 839 695 831 678 q 761 526 693 385 q 630 254 542 81 q 521 39 496 16 q 470 -6 442 -6 q 417 -6 394 15 q 368 39 346 84 q 298 187 251 285 q 165 467 164 468 q 140 518 75 649 q 66 668 29 676 q -8 683 -8 704 q -8 752 60 778 q 128 803 222 803 q 315 803 384 781 q 452 759 452 721 q 452 703 421 692 q 390 680 395 664 q 408 621 432 564 q 456 507 470 470 q 478 446 483 436 q 496 409 510 409 q 529 409 557 463 q 579 507 598 552 q 618 598 642 661 q 647 674 631 685 q 601 704 596 710 q 585 722 585 735 q 585 764 646 784 q 708 804 784 804 q 848 804 890 788 q 932 772 932 738 q 932 727 928 718 z"},"\"":{"x_min":0,"x_max":510,"ha":510,"o":"m 466 730 q 491 686 491 630 q 491 578 468 526 q 446 475 406 438 q 394 426 381 426 q 371 426 355 435 q 347 439 347 447 q 347 455 368 480 q 388 506 388 522 q 388 554 386 563 q 381 584 364 594 q 309 627 300 637 q 280 660 280 692 q 280 699 280 702 q 284 739 310 760 q 337 780 373 780 q 402 780 427 768 q 452 755 466 730 z m 206 730 q 231 686 231 630 q 231 578 208 526 q 186 475 146 438 q 134 426 121 426 q 111 426 95 435 q 87 439 87 447 q 87 455 108 480 q 128 506 128 522 q 128 554 126 563 q 121 584 104 594 q 49 627 40 637 q 20 660 20 692 q 20 699 20 702 q 24 739 50 760 q 77 780 113 780 q 142 780 167 768 q 192 755 206 730 z"},"7":{"x_min":0,"x_max":600,"ha":600,"o":"m 584 646 q 544 520 504 394 q 479 315 437 188 q 405 91 366 -23 q 360 -42 344 -50 q 329 -57 304 -57 q 281 -57 249 -51 q 217 -45 191 -30 q 157 -11 157 13 q 157 19 160 27 q 173 62 235 181 q 326 355 336 375 q 354 425 372 475 q 339 486 293 486 q 268 486 224 482 q 180 478 165 478 q 145 478 109 433 q 91 411 72 411 q 38 411 18 446 q 5 469 -6 518 q -10 534 -10 552 q -10 593 12 633 q 28 662 63 699 q 71 707 81 707 q 89 707 101 701 q 129 687 139 687 l 488 687 q 527 687 556 680 q 585 674 585 655 q 585 649 584 646 z"},"S":{"x_min":0,"x_max":754,"ha":754,"o":"m 722 333 q 727 301 727 278 q 727 145 608 64 q 506 -5 386 -5 q 262 -5 161 36 q 69 73 48 119 q 21 177 21 230 q 21 269 36 292 q 52 316 78 316 q 95 316 116 304 q 171 228 218 186 q 265 143 327 143 q 334 143 342 143 q 352 145 357 145 q 415 153 415 194 q 415 199 413 207 q 400 245 329 280 q 261 308 193 337 q 113 372 92 404 q 48 473 48 545 q 48 650 134 725 q 220 800 352 800 q 358 800 368 800 q 377 799 389 798 q 413 798 441 788 q 503 766 522 766 q 535 766 560 774 q 585 782 597 782 q 611 782 622 774 q 655 752 674 730 q 687 715 704 683 q 714 666 714 631 q 714 590 698 565 q 677 533 633 533 q 602 533 577 559 q 568 568 539 610 q 523 634 499 645 q 475 656 447 656 q 416 656 390 646 q 364 635 358 623 q 351 611 351 601 q 351 576 376 554 q 402 532 433 524 q 547 494 597 469 q 708 415 722 333 z"},"}":{"x_min":0,"x_max":402,"ha":402,"o":"m 378 362 q 366 346 361 337 q 343 309 342 299 q 330 200 319 159 q 302 99 269 70 q 208 18 141 -15 q 74 -48 38 -48 q 25 -48 20 -44 q 8 -37 8 -27 q 8 -17 21 -3 q 41 18 62 40 q 88 80 97 133 q 103 170 103 244 l 103 301 q 103 311 117 337 q 121 345 132 362 q 122 378 118 386 q 103 413 103 421 q 103 434 103 444 q 103 454 103 460 q 103 541 96 585 q 86 646 59 685 q 53 694 27 713 q 8 727 8 741 q 8 746 11 754 q 14 761 31 761 q 64 761 134 732 q 203 703 246 670 q 303 626 324 559 q 335 525 344 427 q 345 416 361 389 q 366 380 378 362 z"},"Z":{"x_min":0,"x_max":707,"ha":707,"o":"m 667 670 q 597 532 549 447 q 498 356 424 241 q 411 222 402 202 q 393 183 393 167 q 393 155 400 145 q 418 120 443 120 q 462 120 488 134 q 503 142 517 151 q 545 169 563 206 q 594 271 625 271 q 661 271 678 245 q 696 219 696 177 q 696 139 682 97 q 669 55 646 19 q 638 7 628 2 q 619 -4 609 -4 q 604 -4 591 -2 q 578 0 571 0 l 24 0 q 11 0 4 10 q -2 21 -2 38 q -2 63 10 85 q 61 178 101 243 q 141 308 199 394 q 237 450 328 580 q 343 602 343 628 q 343 648 331 652 q 312 661 299 665 q 274 674 255 674 q 238 674 222 666 q 207 657 196 637 q 177 601 159 566 q 133 526 100 526 q 60 526 45 562 q 34 588 34 637 q 34 689 76 750 q 119 811 158 807 l 214 804 l 616 804 q 660 804 679 791 q 698 778 698 755 q 698 738 688 714 q 684 703 667 670 z"},"x":{"x_min":0,"x_max":689,"ha":689,"o":"m 682 59 q 682 37 654 22 q 632 10 605 7 q 518 -7 474 -7 q 442 -7 410 -2 q 378 4 326 18 q 301 25 288 33 q 269 45 269 62 q 269 67 270 69 q 272 77 283 82 q 309 94 314 103 q 318 112 318 124 q 318 136 315 144 q 312 152 301 170 q 295 180 286 188 q 277 196 270 196 q 264 196 261 190 q 231 145 202 101 q 197 92 218 73 q 230 62 230 52 q 230 34 209 20 q 193 9 167 4 q 141 -2 117 -2 q 100 -2 88 0 q 75 1 33 10 q 19 13 8 26 q -3 39 -3 54 q -3 65 5 72 q 17 82 33 82 q 40 82 48 82 q 55 83 61 91 q 88 125 114 167 q 125 185 194 311 q 200 322 200 332 q 200 365 139 404 q 113 419 88 435 q 86 436 37 451 q 8 460 8 486 q 8 504 30 524 q 52 544 76 548 q 100 553 146 556 q 192 559 242 559 q 291 559 334 556 q 378 553 398 548 q 417 543 417 529 q 417 524 404 489 q 398 473 398 464 q 398 429 414 404 q 424 388 433 396 q 452 413 462 423 q 487 448 484 464 q 474 491 465 518 q 465 530 475 540 q 485 549 506 553 q 527 557 551 557 q 581 557 602 554 q 624 552 648 545 q 662 541 674 530 q 685 518 685 506 q 685 498 676 492 q 616 454 579 411 q 562 391 524 334 q 507 310 507 286 q 507 253 550 201 q 579 167 608 134 q 612 129 653 103 q 682 84 682 59 z"},")":{"x_min":0,"x_max":405,"ha":405,"o":"m 272 70 q 211 18 144 -15 q 77 -48 41 -48 q 28 -48 23 -44 q 11 -37 11 -27 q 11 -17 24 -3 q 44 18 65 40 q 104 99 124 184 q 143 268 143 361 q 143 458 122 544 q 102 629 62 685 q 56 694 30 713 q 11 727 11 741 q 11 746 14 754 q 17 761 34 761 q 67 761 136 732 q 206 703 249 670 q 321 616 355 535 q 385 464 385 376 q 385 281 351 194 q 317 108 272 70 z"},"&":{"x_min":0,"x_max":925,"ha":925,"o":"m 931 501 q 918 401 850 354 q 777 325 704 296 q 716 279 722 268 q 741 235 744 216 q 747 197 747 191 q 747 116 647 61 q 561 14 443 0 q 411 -4 370 -4 q 277 -4 205 26 q 125 59 78 126 q 22 207 22 288 q 22 337 42 378 q 61 419 103 454 q 127 474 154 484 q 161 487 213 501 q 220 503 222 544 q 225 584 232 598 q 258 648 310 672 q 361 695 419 695 q 452 695 481 687 q 523 675 554 648 q 585 620 585 592 q 585 557 552 557 q 536 557 520 567 q 504 577 486 584 q 468 591 452 591 q 428 591 412 574 q 397 558 397 540 q 397 517 420 490 q 434 475 449 460 q 455 452 436 432 q 418 412 405 406 q 400 404 386 409 q 347 423 335 423 q 325 423 317 419 q 294 407 282 378 q 269 350 269 314 q 269 277 282 240 q 294 203 317 176 q 345 144 376 124 q 406 105 438 105 q 459 105 478 113 q 509 126 528 141 q 553 161 553 183 q 553 190 550 198 q 539 224 528 236 q 516 248 505 248 q 499 248 465 235 q 447 228 434 228 q 424 228 414 230 q 404 233 404 260 q 404 290 421 309 q 457 348 508 374 q 559 400 632 419 q 684 433 729 460 q 784 494 784 524 q 784 538 771 551 q 762 560 741 560 q 733 560 721 558 q 709 557 695 556 q 674 556 676 573 q 682 619 742 649 q 777 667 812 667 q 864 667 898 630 q 933 592 933 529 q 933 522 932 514 q 931 506 931 501 z"},"_":{"x_min":0,"x_max":595,"ha":595,"o":"m 657 -144 q 681 -144 681 -161 q 681 -184 646 -220 q 612 -255 590 -255 l -59 -255 q -81 -255 -81 -238 q -81 -216 -48 -180 q -15 -144 2 -144 z"},"v":{"x_min":0,"x_max":686,"ha":686,"o":"m 682 486 q 634 459 624 453 q 613 447 602 425 l 403 46 q 391 24 372 10 q 354 -5 335 -5 q 318 -5 302 6 q 287 17 273 43 l 88 389 q 79 406 54 424 q 28 442 2 461 q -5 474 -5 487 q -5 520 49 538 q 103 557 188 557 q 268 557 310 547 q 373 532 373 492 q 373 475 354 460 q 336 444 336 426 q 336 415 342 395 q 353 362 360 349 q 374 321 386 321 q 392 321 397 326 q 427 357 443 380 q 465 412 465 432 q 465 442 461 447 q 452 460 444 474 q 433 494 433 506 q 433 529 458 542 q 490 558 560 558 q 624 558 658 541 q 693 524 693 504 q 693 492 682 486 z"},"O":{"x_min":0,"x_max":916,"ha":916,"o":"m 883 464 q 885 452 886 437 q 887 422 887 408 q 887 257 780 140 q 674 24 517 1 q 500 -2 474 -3 q 448 -4 445 -4 q 298 -4 186 77 q 69 161 37 301 q 27 342 27 389 q 27 526 114 638 q 201 750 338 791 q 366 800 396 804 q 425 808 457 808 q 611 808 736 710 q 862 613 883 464 z m 569 464 q 536 551 505 591 q 461 647 396 647 q 345 647 322 618 q 300 589 300 531 q 300 496 309 445 q 318 394 332 336 q 343 288 394 233 q 453 169 506 169 q 528 169 546 180 q 577 198 590 230 q 604 261 604 303 q 604 341 594 382 q 584 424 569 464 z"},"(":{"x_min":0,"x_max":414,"ha":414,"o":"m 399 726 q 402 718 402 712 q 402 698 375 679 q 358 667 351 657 q 311 601 290 516 q 270 430 270 333 q 270 240 290 156 q 309 71 348 12 q 353 5 380 -22 q 402 -44 402 -55 q 402 -65 390 -72 q 383 -76 371 -76 q 336 -76 272 -44 q 207 -12 141 42 q 95 80 63 162 q 28 251 28 347 q 28 434 58 506 q 92 588 164 642 q 208 675 276 704 q 345 733 380 733 q 396 733 399 726 z"},"C":{"x_min":0,"x_max":827,"ha":827,"o":"m 784 636 q 797 600 797 568 q 797 525 772 500 q 746 474 700 474 q 694 474 688 474 q 679 476 670 477 q 660 478 603 552 q 546 625 460 633 q 452 634 444 634 q 436 634 432 634 q 359 634 325 590 q 296 553 296 489 q 296 444 309 399 q 322 354 341 324 q 368 279 412 245 q 475 196 546 196 q 581 196 616 208 q 652 219 693 247 q 699 251 713 265 q 733 285 752 285 q 772 285 783 267 q 794 249 794 221 q 794 197 786 174 q 778 150 763 136 q 700 77 662 54 q 623 30 552 6 q 518 -6 482 -12 q 445 -18 414 -18 q 280 -18 170 76 q 89 145 53 230 q 41 257 34 298 q 26 339 26 382 q 26 466 52 539 q 82 624 142 680 q 202 737 276 770 q 358 806 442 806 q 488 806 530 796 q 571 787 617 766 q 627 761 639 761 q 647 761 657 763 q 681 768 687 768 q 702 768 714 760 q 745 742 761 705 q 776 660 784 636 z"},"W":{"x_min":0,"x_max":1389,"ha":1389,"o":"m 1383 711 q 1369 695 1325 684 q 1281 673 1268 645 q 1229 561 1182 455 q 1158 401 1110 290 q 1098 261 1029 104 q 1007 53 980 25 q 954 -3 925 -3 q 900 -3 876 17 q 849 40 824 85 q 809 112 786 162 q 762 213 723 308 q 708 342 693 362 q 683 366 674 371 q 631 268 588 165 q 585 159 551 87 q 507 -5 449 -5 q 393 -5 352 84 q 284 231 213 379 q 148 512 84 645 q 78 659 40 671 q 1 683 -2 689 q -4 694 -5 701 q -6 707 -6 712 q -6 756 64 780 q 133 803 229 803 q 324 803 392 781 q 459 759 459 719 q 459 707 432 688 q 406 668 413 651 q 446 573 457 549 q 468 525 496 472 q 502 459 509 446 q 516 432 527 432 q 531 432 539 435 q 561 445 576 477 q 592 509 592 551 q 592 578 586 605 q 579 632 565 662 q 556 680 534 693 q 512 706 508 716 q 505 726 505 733 q 505 768 568 787 q 630 806 715 806 q 805 806 875 787 q 945 768 945 737 q 945 722 919 705 q 893 688 893 674 q 897 639 923 582 q 934 559 969 492 q 980 471 990 464 q 999 456 1008 456 q 1017 456 1024 465 q 1052 503 1068 537 q 1083 571 1095 628 q 1098 639 1098 644 q 1099 650 1099 658 q 1099 680 1078 691 q 1032 715 1032 739 q 1032 766 1080 785 q 1128 804 1180 804 q 1295 804 1350 785 q 1396 769 1396 742 q 1396 728 1383 711 z"},"A":{"x_min":0,"x_max":919,"ha":919,"o":"m 922 83 q 930 72 930 62 q 930 39 901 20 q 872 0 843 0 l 524 0 q 505 0 489 18 q 473 36 473 57 q 473 77 487 88 q 505 103 524 120 q 543 136 543 152 q 543 160 538 168 q 533 176 516 182 q 500 188 484 188 l 290 188 q 275 188 261 171 q 247 154 247 136 q 247 122 259 116 q 284 104 303 88 q 322 72 322 56 q 322 46 317 40 q 301 15 268 4 q 234 -7 184 -7 q 150 -7 97 -2 q 61 -2 32 13 q 4 28 -6 57 q -8 61 -8 69 q -8 88 34 99 q 75 110 81 124 l 275 559 q 281 572 283 585 q 285 598 285 613 q 285 624 283 652 q 281 679 281 680 q 281 702 286 716 q 290 731 305 747 q 331 774 351 785 q 376 799 406 799 q 412 799 428 797 q 495 784 566 673 q 632 550 646 524 q 690 441 726 355 q 762 269 773 249 q 800 201 852 147 q 887 115 922 83 z m 479 351 q 456 387 422 444 q 418 451 411 462 q 404 474 396 482 q 388 491 380 491 q 373 491 367 482 q 357 469 336 399 q 329 376 317 330 l 440 330 q 456 330 469 332 q 482 335 482 343 q 482 346 479 351 z"},"f":{"x_min":0,"x_max":454,"ha":454,"o":"m 471 612 q 463 582 446 564 q 428 545 399 540 q 395 539 392 539 q 387 539 385 539 q 356 539 319 589 q 282 639 228 639 q 213 639 206 624 q 198 608 198 588 q 198 537 241 509 q 291 488 303 480 q 308 477 321 460 q 334 444 342 444 l 435 444 q 449 444 458 428 q 466 411 466 389 q 466 366 458 352 q 450 339 433 339 q 426 339 382 352 q 362 358 351 358 q 331 358 331 339 l 331 146 q 331 127 380 110 q 429 93 429 72 q 429 40 398 20 q 368 0 336 0 q 307 0 278 0 q 250 0 221 -1 q 212 -1 207 -1 q 157 -1 114 6 q 70 12 55 20 q 26 34 26 68 q 27 75 27 78 q 29 97 67 108 q 105 119 105 136 l 105 336 q 105 350 92 350 q 88 350 50 341 q 29 336 15 336 q 1 336 -8 352 q -16 369 -16 391 q -16 413 -8 428 q 0 444 15 444 l 87 444 q 97 444 97 450 q 97 456 76 482 q 55 509 52 520 q 49 530 46 548 q 43 567 43 580 q 43 641 72 683 q 111 740 198 759 q 230 766 261 766 q 309 766 363 744 q 398 730 431 699 q 473 660 473 625 q 473 620 471 612 z"},"Q":{"x_min":0,"x_max":905,"ha":905,"o":"m 877 474 q 884 445 884 410 q 884 280 780 153 q 684 35 595 24 q 586 22 586 18 q 586 11 622 -5 q 658 -21 680 -28 q 703 -35 723 -35 q 738 -35 755 -31 q 805 -19 830 -19 q 851 -19 862 -31 q 873 -43 873 -63 q 873 -84 863 -98 q 833 -145 753 -169 q 684 -190 598 -190 q 562 -190 532 -186 q 503 -182 479 -175 q 344 -101 266 -61 q 182 -18 127 -18 q 112 -18 105 -19 q 80 -23 54 -9 q 29 5 29 32 q 29 44 38 61 q 59 73 72 79 q 115 98 151 98 q 118 140 101 166 q 47 246 36 295 q 25 344 25 392 q 25 526 106 634 q 187 743 319 785 q 379 804 444 804 q 593 804 717 712 q 841 619 877 474 z m 566 466 q 539 544 505 586 q 462 639 404 639 q 393 639 387 638 q 315 629 315 514 q 315 447 341 340 q 353 290 399 233 q 454 165 503 165 q 524 165 543 178 q 570 198 582 232 q 595 267 595 309 q 595 345 587 386 q 579 428 566 466 z"},"w":{"x_min":0,"x_max":1115,"ha":1115,"o":"m 1122 513 q 1122 486 1084 476 q 1045 466 1035 451 q 998 391 964 325 q 945 288 903 200 q 861 111 838 65 q 819 28 804 12 q 786 -8 766 -8 q 749 -8 729 8 q 709 23 686 56 q 648 107 611 158 q 586 194 559 240 q 548 260 534 260 q 509 260 478 180 q 466 150 432 37 q 419 -6 382 -6 q 361 -6 348 13 l 90 397 q 71 425 52 437 q 39 445 25 445 q 16 445 12 445 q -2 445 -6 458 q -11 472 -11 479 q -11 524 96 543 q 130 549 212 557 q 226 558 236 558 q 246 559 253 559 q 302 559 337 546 q 372 533 376 502 q 377 491 366 476 q 356 462 356 446 q 356 418 381 382 q 386 375 415 341 q 429 326 440 326 q 448 326 455 332 q 462 339 472 352 q 483 365 483 386 q 483 393 480 408 q 478 424 477 426 q 475 437 437 471 q 421 485 421 502 q 421 538 480 551 q 517 559 588 559 q 675 559 713 552 q 785 539 785 499 q 785 491 782 482 q 779 473 759 462 q 739 450 742 440 q 759 379 766 365 q 784 330 815 330 q 848 330 872 375 q 889 407 894 440 q 896 453 886 464 q 861 493 861 502 q 861 539 890 550 q 920 560 980 560 l 1024 560 q 1083 560 1102 550 q 1122 541 1122 513 z"},"-":{"x_min":0,"x_max":688,"ha":688,"o":"m 638 441 q 661 441 661 417 q 661 384 625 331 q 589 278 567 278 l 47 278 q 25 278 25 302 q 25 335 59 388 q 93 441 112 441 z"},"E":{"x_min":0,"x_max":800,"ha":800,"o":"m 790 156 q 778 105 748 61 q 707 0 654 0 l 95 0 q 59 0 37 19 q 15 38 15 65 q 15 93 43 109 q 57 116 71 124 q 93 138 93 159 l 93 621 q 93 634 93 640 q 93 671 86 685 q 76 705 43 720 q 25 728 25 752 q 25 771 36 788 q 48 804 63 804 l 680 804 q 703 804 718 789 q 733 774 753 717 q 760 696 760 669 q 760 630 744 602 q 728 573 700 573 q 693 573 689 574 q 668 578 649 602 q 630 626 613 650 q 592 675 559 685 q 526 695 485 695 q 460 695 432 690 q 403 686 390 684 q 377 681 366 652 q 354 622 354 583 q 354 537 369 502 q 384 467 409 467 q 439 467 461 484 q 483 501 488 532 q 492 563 502 576 q 512 590 536 590 q 559 590 579 535 q 599 480 599 414 q 599 351 581 310 q 559 260 514 246 q 490 239 480 300 q 469 360 421 360 q 369 360 369 322 l 369 147 q 369 127 386 121 q 403 115 432 115 q 439 115 446 115 q 454 115 462 116 q 476 116 486 116 q 497 116 503 116 q 536 116 544 117 q 578 121 607 141 q 617 148 688 247 q 712 281 737 281 q 773 281 788 266 q 802 251 802 224 q 802 206 797 185 q 792 164 790 156 z"},"s":{"x_min":0,"x_max":540,"ha":540,"o":"m 507 132 q 483 63 416 28 q 348 -7 255 -7 q 177 -7 94 17 q 65 26 44 64 q 22 103 22 143 q 22 173 38 189 q 46 197 58 197 q 75 197 104 177 q 145 148 187 119 q 201 112 221 112 q 239 112 252 118 q 266 125 266 136 q 266 148 249 164 q 141 206 86 249 q 27 295 27 365 q 27 373 27 381 q 27 386 32 410 q 44 466 94 507 q 158 559 261 559 q 276 559 287 557 q 324 550 327 550 q 333 550 340 552 q 347 553 364 562 q 380 571 388 570 q 405 567 431 543 q 451 524 478 491 q 499 466 499 441 q 499 414 475 395 q 451 376 429 376 q 424 376 418 378 q 405 384 376 408 q 320 453 297 453 q 280 453 270 438 q 265 430 265 423 q 265 395 345 356 q 376 341 408 327 q 469 296 495 254 q 516 220 516 181 q 516 168 514 156 q 511 143 507 132 z"},"l":{"x_min":0,"x_max":423,"ha":423,"o":"m 408 78 q 412 46 372 27 q 351 17 300 6 q 271 0 245 -2 q 219 -5 188 -5 q 118 -5 77 10 q 27 28 27 66 q 27 85 47 98 q 73 111 84 117 q 100 127 105 143 q 110 159 110 185 q 110 197 110 204 l 110 543 q 110 566 68 578 q 26 590 19 604 q 12 618 12 634 q 12 666 36 678 q 114 721 162 745 q 253 791 296 791 q 318 791 330 780 q 342 769 342 744 l 342 138 q 342 120 374 108 q 406 95 408 78 z"},"8":{"x_min":0,"x_max":634,"ha":634,"o":"m 609 246 q 611 236 612 224 q 613 212 613 201 q 613 91 512 36 q 428 -10 297 -10 q 149 -10 77 62 q 23 116 23 188 q 23 233 51 270 q 69 292 87 314 q 88 316 52 363 q 32 389 28 405 q 24 421 22 434 q 20 446 20 457 q 20 529 75 582 q 130 634 223 653 q 249 658 288 663 q 328 668 356 668 q 432 668 480 642 q 537 611 564 577 q 587 547 587 516 q 587 484 565 450 q 539 417 514 384 q 544 367 572 336 q 599 306 609 246 z m 385 521 q 375 560 332 560 q 309 560 294 552 q 278 544 271 526 q 269 518 269 515 q 269 497 290 479 q 304 468 331 455 q 341 450 351 450 q 368 450 378 466 q 387 483 387 504 q 387 511 385 521 z m 378 161 q 368 190 305 219 q 242 248 227 242 q 194 227 194 206 q 194 195 202 181 q 214 163 219 155 q 233 130 256 116 q 280 102 307 97 q 311 96 319 96 q 343 96 362 112 q 380 127 380 148 q 380 157 378 161 z"},"\\":{"x_min":0,"x_max":488,"ha":488,"o":"m 451 55 q 461 38 421 17 q 398 5 382 5 q 364 5 358 19 q 357 21 310 111 q 263 201 226 274 q 183 359 128 450 q 78 531 28 613 q 20 627 45 649 q 70 671 91 671 q 103 671 110 657 q 118 643 180 537 q 223 463 238 436 q 304 310 370 184 q 391 148 421 101 q 432 84 451 55 z"},"e":{"x_min":0,"x_max":596,"ha":596,"o":"m 544 126 q 514 64 444 29 q 375 -6 286 -6 q 175 -6 106 64 q 38 133 28 246 q 27 259 26 268 q 26 278 26 284 q 26 357 55 414 q 84 472 145 510 q 184 534 224 546 q 265 557 308 557 q 375 557 432 530 q 488 504 517 462 q 538 432 554 390 q 571 347 571 315 q 571 295 562 282 q 552 270 532 270 l 319 270 q 278 270 260 260 q 241 250 241 232 q 241 217 256 198 q 272 178 298 162 q 324 145 343 138 q 362 132 388 132 q 413 132 446 159 q 479 186 496 186 q 514 186 530 170 q 547 155 547 138 q 547 132 544 126 z m 364 375 q 366 387 366 392 q 366 422 349 444 q 332 465 300 465 q 269 465 250 440 q 232 415 232 386 q 232 353 253 353 l 332 353 q 359 353 364 375 z"},"b":{"x_min":0,"x_max":708,"ha":708,"o":"m 684 252 q 665 132 594 64 q 553 25 478 -6 q 429 -26 374 -26 q 325 -26 275 -12 q 267 -10 208 29 q 185 44 163 44 q 149 44 126 26 q 102 7 92 7 q 83 7 75 15 q 62 28 62 43 q 62 49 69 75 q 73 90 73 98 l 73 488 q 73 498 73 503 q 73 534 67 549 q 58 572 31 588 q 13 598 4 608 q -9 622 -9 634 q -9 643 -1 650 q 29 676 90 703 q 164 736 225 744 q 248 749 264 752 q 281 755 285 755 q 307 755 307 738 l 307 491 q 307 484 313 484 q 362 511 399 530 q 441 552 466 552 q 578 552 639 450 q 686 371 686 279 q 686 272 685 264 q 684 256 684 252 z m 437 264 q 431 307 407 340 q 383 373 353 373 q 324 373 316 332 q 307 291 307 221 l 307 174 q 307 137 330 110 q 352 83 377 83 q 400 83 414 107 q 428 131 436 156 q 443 181 443 203 q 443 212 442 224 q 438 250 437 264 z"},"%":{"x_min":0,"x_max":840,"ha":840,"o":"m 353 553 q 368 518 368 481 q 368 429 340 384 q 311 338 262 318 q 230 304 190 304 q 138 304 94 332 q 51 359 29 409 q 14 444 14 481 q 14 533 42 578 q 70 622 120 643 q 155 658 190 658 q 242 658 287 630 q 332 601 353 553 z m 606 647 q 590 624 534 511 q 488 417 432 298 q 358 141 300 4 l 207 60 q 235 104 250 130 q 266 157 288 198 q 314 247 338 304 q 402 456 413 478 q 421 495 455 583 q 499 699 524 699 q 529 699 532 697 q 554 688 565 683 q 600 665 606 647 z m 797 321 q 822 278 822 227 q 822 179 798 136 q 775 93 732 68 q 688 43 638 43 q 589 43 546 67 q 502 91 478 135 q 466 155 460 180 q 454 204 454 227 q 454 277 477 320 q 500 362 544 387 q 587 412 638 412 q 686 412 729 388 q 772 365 797 321 z m 232 480 q 226 511 214 531 q 199 557 178 557 q 172 557 164 555 q 156 553 150 540 q 143 528 143 512 q 143 500 146 485 q 149 470 150 462 q 157 430 167 412 q 182 386 203 386 q 209 386 218 388 q 226 390 232 402 q 239 415 239 432 q 239 444 236 458 q 233 473 232 480 z m 678 241 q 662 280 649 294 q 636 307 620 307 q 615 307 607 305 q 599 303 594 294 q 588 285 588 269 q 588 256 592 238 q 597 221 603 203 q 615 169 626 153 q 643 128 668 132 q 682 134 688 144 q 695 154 695 171 q 695 187 691 202 q 687 217 678 241 z"},"m":{"x_min":0,"x_max":1070,"ha":1070,"o":"m 1048 75 q 1051 60 1044 48 q 1038 37 1006 21 q 980 8 954 2 q 928 -3 899 -3 q 871 -3 845 2 q 819 6 792 14 q 766 22 751 36 q 736 50 736 71 q 736 78 739 88 q 742 99 760 112 q 779 126 779 145 l 779 303 q 779 359 766 379 q 752 399 725 399 q 689 399 677 371 q 669 352 669 309 q 669 293 669 286 l 669 142 q 669 129 690 103 q 701 89 701 78 q 701 35 662 16 q 623 -3 546 -3 q 486 -3 456 3 q 413 12 383 38 q 375 45 375 56 q 375 65 379 72 q 383 79 393 89 q 411 101 417 106 q 427 114 427 132 l 427 303 q 427 349 421 367 q 410 399 376 399 q 336 399 324 361 q 317 339 317 286 l 317 114 q 317 102 334 84 q 352 67 348 54 q 340 30 314 16 q 294 5 264 1 q 235 -3 206 -6 q 177 -8 165 -8 q 139 -8 116 -5 q 94 -2 72 4 q 49 11 36 27 q 22 43 22 61 q 22 71 26 78 q 50 99 63 115 q 76 131 76 148 l 76 387 q 76 405 50 419 q 23 433 23 448 q 23 472 40 486 q 57 501 86 511 q 134 527 186 543 q 237 559 270 559 q 314 563 323 513 q 327 477 328 466 q 330 454 334 454 q 340 454 372 490 q 404 527 424 535 q 475 556 520 556 q 552 556 585 546 q 610 539 630 510 q 649 482 668 454 q 673 454 677 461 q 711 512 745 534 q 784 559 840 559 q 943 559 977 506 q 1011 453 1011 313 l 1011 132 q 1011 118 1034 95 q 1047 82 1048 75 z"},",":{"x_min":0,"x_max":237,"ha":237,"o":"m 206 138 q 225 92 225 39 q 225 -16 206 -64 q 187 -113 146 -150 q 134 -162 121 -162 q 111 -162 95 -153 q 87 -149 87 -141 q 87 -133 108 -108 q 128 -82 128 -66 q 128 -34 126 -25 q 121 -4 104 6 q 49 39 40 49 q 20 72 20 104 q 20 111 20 114 q 23 146 42 166 q 60 187 92 195 q 104 198 115 198 q 144 198 170 182 q 195 165 206 138 z"},"n":{"x_min":0,"x_max":740,"ha":740,"o":"m 716 70 q 723 22 654 6 q 615 -3 536 -3 q 512 -4 499 -4 q 471 -4 450 2 q 428 8 407 27 q 394 39 394 63 q 394 81 402 94 q 414 111 419 126 q 424 142 424 173 l 424 290 q 424 326 412 353 q 396 388 369 388 q 357 388 340 378 q 323 368 318 347 q 314 326 314 294 q 314 280 314 273 l 314 169 q 314 151 324 134 q 339 114 346 102 q 359 82 359 65 q 359 34 314 17 q 287 7 242 0 q 230 -2 215 -3 q 200 -4 186 -4 q 130 -4 56 18 q 42 22 34 34 q 26 46 26 62 q 26 84 42 92 q 59 101 67 112 q 75 124 75 144 l 75 386 q 75 405 40 422 q 23 430 23 441 q 23 462 41 475 q 49 481 83 495 q 155 526 185 537 q 240 557 272 557 q 314 557 314 519 l 314 453 q 314 439 318 439 q 321 439 356 484 q 391 528 422 540 q 465 557 504 557 q 558 557 599 527 q 636 500 656 456 q 671 424 676 392 q 680 359 680 318 q 680 307 680 298 q 680 288 680 282 l 680 120 q 680 108 697 96 q 714 85 716 70 z"},"h":{"x_min":0,"x_max":773,"ha":773,"o":"m 720 106 q 745 75 745 52 q 745 29 720 16 q 695 3 658 0 q 620 -4 586 -4 q 535 -4 459 15 q 417 26 417 65 q 417 77 426 88 q 456 121 460 132 q 465 143 465 182 l 465 348 q 465 368 446 378 q 427 387 406 390 q 384 393 373 393 q 355 393 348 391 q 326 385 326 366 l 326 141 q 326 124 350 106 q 373 87 373 71 q 373 45 348 30 q 337 23 298 10 q 258 -3 200 -3 q 133 -3 88 13 q 34 32 29 68 q 26 89 40 103 q 53 117 79 124 q 87 127 90 141 q 94 155 94 176 q 94 197 94 206 l 94 553 q 94 577 75 590 q 56 604 38 618 q 26 630 26 648 q 26 665 44 676 q 103 710 162 745 q 245 790 285 790 q 327 790 327 744 l 327 477 q 327 470 335 470 q 344 470 361 480 q 378 490 388 500 q 420 533 452 546 q 483 559 517 559 q 585 559 636 512 q 688 466 688 394 l 688 165 q 688 146 700 130 q 713 115 720 106 z"},"z":{"x_min":0,"x_max":591,"ha":591,"o":"m 579 171 q 581 161 581 152 q 581 101 557 48 q 529 -14 491 -14 q 486 -14 478 -12 q 451 -5 434 -2 q 418 0 394 0 q 376 0 365 0 l 70 0 q 56 0 49 12 q 42 24 42 41 q 42 59 50 75 l 222 398 q 225 404 225 410 q 225 435 187 435 q 168 435 150 428 q 132 420 112 383 q 93 346 44 346 q 11 346 11 407 q 11 463 37 510 q 68 565 114 565 q 123 565 157 560 q 171 558 185 558 l 536 558 q 551 558 558 546 q 566 533 566 515 q 566 492 556 474 l 370 142 q 365 132 379 126 q 393 119 408 119 q 442 116 472 164 q 501 212 518 212 q 539 212 557 202 q 575 191 579 171 z"},"B":{"x_min":0,"x_max":865,"ha":865,"o":"m 840 247 q 840 132 784 68 q 724 0 624 0 l 144 0 q 128 0 121 0 q 96 0 84 2 q 73 5 58 12 q 44 20 34 40 q 24 59 24 77 q 24 100 42 104 q 83 113 86 114 q 106 122 106 142 l 106 663 q 106 685 79 694 q 60 699 46 704 q 33 708 28 718 q 22 729 22 741 q 22 749 23 753 q 28 779 37 789 q 50 804 78 804 l 567 804 q 654 804 714 756 q 774 707 774 625 q 774 530 723 475 q 706 457 672 439 q 728 424 756 406 q 840 352 840 247 z m 493 590 q 493 647 467 673 q 446 694 412 694 q 404 694 395 692 q 386 691 375 687 l 375 478 q 395 466 416 466 q 429 466 444 471 q 472 481 482 506 q 493 531 493 590 z m 485 325 q 452 354 411 354 q 403 354 394 353 q 385 352 375 349 l 375 133 q 400 114 429 114 q 445 114 467 124 q 494 137 510 166 q 525 196 525 232 q 525 260 516 284 q 506 307 485 325 z"},"K":{"x_min":0,"x_max":927,"ha":927,"o":"m 958 84 q 960 74 960 70 q 960 34 908 15 q 856 -4 780 -4 q 712 -4 656 10 q 601 25 580 52 q 535 112 500 158 q 464 204 435 238 q 424 250 411 259 q 394 271 382 271 q 363 271 360 252 q 357 234 355 224 q 353 214 353 208 q 353 194 356 178 q 360 163 362 151 q 368 122 392 112 q 415 103 420 91 q 424 79 424 68 q 424 32 363 11 q 309 -7 228 -7 q 142 -7 78 13 q 14 33 14 68 q 14 85 29 101 q 55 117 67 124 q 89 138 89 171 l 89 635 q 89 649 70 662 q 24 694 22 704 q 20 713 20 722 q 20 762 80 785 q 141 808 222 808 q 303 808 360 786 q 416 765 416 727 q 416 718 412 710 q 409 701 374 676 q 343 654 343 621 q 343 609 342 598 q 342 586 342 576 q 342 530 357 522 q 372 514 383 514 q 398 514 410 526 q 414 529 440 571 q 445 580 458 602 q 472 625 490 650 q 495 656 495 665 q 495 674 484 694 q 473 713 475 725 q 483 769 534 788 q 584 808 656 808 q 714 808 770 798 q 826 787 833 778 q 853 750 853 726 q 853 707 841 696 q 829 685 804 685 q 790 685 778 685 q 767 685 757 686 q 741 686 732 683 q 722 680 702 667 q 643 631 623 610 q 617 603 589 562 q 576 543 576 522 q 576 502 587 481 q 595 466 615 439 q 679 354 731 292 q 772 243 842 165 q 857 148 892 132 q 953 103 958 84 z"},"R":{"x_min":0,"x_max":896,"ha":896,"o":"m 923 88 q 926 77 926 69 q 926 39 894 18 q 866 0 831 0 l 650 0 q 610 0 573 76 q 555 113 518 224 q 490 309 473 321 q 446 341 408 341 q 396 341 388 336 q 379 332 379 324 l 379 144 q 379 126 402 118 q 425 110 447 103 q 456 99 460 90 q 464 80 464 68 q 464 55 460 43 q 456 31 450 27 q 427 10 372 2 q 317 -5 247 -5 q 195 -5 152 -2 q 110 1 86 6 q 62 10 48 26 q 35 42 35 62 q 35 83 53 97 q 77 112 101 127 q 114 139 114 156 l 114 643 q 114 666 76 680 q 39 694 34 705 q 30 716 30 730 q 30 760 58 780 q 86 799 115 799 q 144 799 256 802 q 367 804 406 804 q 554 804 620 793 q 686 782 736 731 q 797 669 797 576 q 797 523 753 475 q 725 445 673 412 q 661 404 661 399 q 661 397 723 370 q 760 354 785 329 q 807 307 828 229 q 850 151 863 136 q 876 120 897 111 q 918 102 923 88 z m 473 471 q 490 485 498 510 q 507 534 507 564 q 507 601 496 632 q 485 663 468 670 q 437 683 414 683 q 401 683 393 681 q 389 680 379 675 l 379 465 q 402 453 423 453 q 449 453 473 471 z"},"T":{"x_min":0,"x_max":823,"ha":823,"o":"m 799 711 q 810 690 820 659 q 829 628 829 602 q 829 572 816 551 q 800 526 767 517 q 755 514 745 514 q 708 514 666 577 q 624 640 593 640 q 571 640 560 637 q 549 634 549 617 l 549 200 q 549 155 586 150 q 604 148 623 147 q 643 143 652 130 q 662 118 662 102 q 662 81 650 60 q 638 39 625 33 q 583 14 518 3 q 452 -8 386 -8 q 301 -8 245 7 q 179 25 158 59 q 152 68 152 84 q 152 102 160 116 q 167 131 179 133 q 224 140 239 143 q 275 151 275 186 l 275 599 q 275 632 252 638 q 235 641 229 642 q 209 647 186 615 q 154 571 123 527 q 94 512 67 512 q 34 512 14 534 q -7 555 -7 595 q -7 624 8 663 q 38 738 53 763 q 85 816 120 811 q 135 808 150 806 q 165 804 181 804 l 618 804 q 634 804 659 810 q 684 816 697 816 q 712 816 729 809 q 754 798 771 768 q 789 730 799 711 z"},"P":{"x_min":0,"x_max":811,"ha":811,"o":"m 807 576 q 807 428 699 352 q 612 291 492 291 q 483 291 459 293 q 435 295 433 295 q 415 295 406 289 q 396 283 396 268 l 396 150 q 396 137 436 128 q 459 123 466 116 q 474 110 478 99 q 482 88 482 75 q 482 36 466 24 q 450 10 389 -2 q 328 -14 253 -14 q 209 -14 172 -10 q 134 -5 102 5 q 69 15 54 32 q 39 49 39 72 q 39 80 44 97 q 48 114 85 126 q 122 139 122 153 l 122 667 q 122 685 83 690 q 44 696 28 714 q 19 723 19 739 q 19 762 38 783 q 57 804 86 804 l 554 804 q 667 804 739 735 q 807 670 807 576 z m 495 447 q 535 493 535 554 q 535 588 520 617 q 506 646 478 664 q 449 681 425 681 q 413 681 396 676 l 396 412 q 403 411 417 411 q 441 411 460 420 q 479 428 495 447 z"},"t":{"x_min":0,"x_max":543,"ha":543,"o":"m 511 123 q 488 57 428 23 q 374 -8 304 -8 q 220 -8 159 32 q 94 75 94 141 l 94 406 q 94 431 93 435 q 89 451 73 451 l 10 452 q 1 452 -4 460 q -10 469 -10 482 q -10 513 10 525 q 98 576 173 639 q 238 693 265 714 q 287 731 309 731 q 327 731 327 716 l 327 592 q 327 574 328 566 q 330 558 343 558 l 493 558 q 509 558 517 542 q 525 525 525 501 q 525 473 516 452 q 508 432 493 432 q 446 432 385 441 q 370 444 358 444 q 343 444 343 432 l 343 195 q 343 175 356 166 q 370 156 394 156 q 414 156 433 161 q 452 166 472 177 q 483 183 499 159 q 515 135 511 123 z"},"M":{"x_min":0,"x_max":1099,"ha":1099,"o":"m 1070 727 q 1032 711 1018 685 q 1004 659 1004 619 l 1004 168 q 1004 148 1021 126 q 1042 102 1064 78 q 1067 69 1067 62 q 1067 12 926 2 q 871 -2 782 -2 q 769 -2 763 -2 q 705 -2 684 10 q 663 21 656 45 q 650 65 672 83 q 725 128 725 138 l 725 338 q 725 356 705 356 q 695 356 684 351 q 674 346 670 338 q 658 316 613 218 q 572 129 550 86 q 518 22 508 19 q 498 16 495 16 q 481 16 468 31 q 464 36 435 88 q 406 141 373 214 q 309 356 302 366 q 294 375 288 375 q 274 375 264 342 q 254 309 254 272 l 254 134 q 254 101 292 86 q 331 71 331 30 q 331 9 304 3 q 290 0 252 0 l 73 0 q 52 0 40 12 q 27 24 27 41 q 27 52 32 60 q 44 82 80 90 q 115 99 115 124 l 115 636 q 115 665 109 672 q 100 683 53 703 q 42 707 42 726 q 42 749 58 774 q 74 800 86 802 q 99 803 148 806 q 198 809 237 809 q 271 809 299 807 q 327 805 335 796 q 385 739 423 674 q 470 589 500 535 q 516 505 532 488 q 549 472 565 472 q 581 472 597 490 q 613 508 629 547 q 662 627 676 654 q 705 714 732 745 q 765 784 803 793 q 867 808 925 808 q 990 808 1037 787 q 1053 780 1066 766 q 1078 751 1078 739 q 1078 730 1070 727 z"},"g":{"x_min":0,"x_max":588,"ha":588,"o":"m 611 12 q 611 -92 497 -143 q 447 -165 314 -190 q 278 -196 245 -196 q 166 -196 100 -162 q 51 -137 29 -107 q 15 -87 7 -66 q -1 -46 -1 -26 q -1 -12 3 -3 q 16 33 68 35 q 71 38 74 42 q 44 61 31 82 q 18 102 18 123 q 18 160 56 200 q 68 213 95 232 q 91 242 87 252 q 23 308 23 362 q 23 433 65 480 q 124 545 261 558 q 268 558 276 558 q 285 559 288 559 q 331 559 378 548 q 425 537 472 526 q 493 531 530 558 q 566 584 580 584 q 593 584 603 570 q 617 548 617 527 q 617 513 611 498 q 605 483 584 466 q 564 450 558 440 q 556 437 555 433 q 553 425 553 415 q 553 410 554 396 q 555 381 555 372 q 555 329 534 298 q 504 254 428 223 q 385 206 330 206 q 309 206 285 209 q 261 212 240 217 q 227 220 216 213 q 206 206 199 193 q 196 187 196 182 q 196 164 219 150 q 242 137 267 137 q 286 137 322 144 q 414 162 449 162 q 480 162 501 158 q 522 153 543 140 q 611 99 611 12 z m 359 389 q 359 428 343 455 q 324 487 291 487 q 259 487 243 459 q 227 431 227 391 q 227 377 230 355 q 232 333 252 306 q 271 279 303 279 q 335 279 349 316 q 359 343 359 389 z m 386 -42 q 379 -25 364 -19 q 349 -13 324 -13 q 315 -13 296 -14 q 278 -15 270 -15 q 255 -15 232 -12 q 208 -10 202 -10 q 190 -10 180 -12 q 169 -14 157 -21 q 149 -25 149 -33 q 149 -48 182 -68 q 216 -88 246 -95 q 262 -99 286 -99 q 327 -99 358 -87 q 389 -75 389 -54 q 389 -48 386 -42 z"},"j":{"x_min":0,"x_max":388,"ha":388,"o":"m 310 681 q 299 640 259 617 q 225 598 160 588 q 150 586 129 586 q 87 586 58 601 q 28 616 25 648 q 20 693 64 718 q 94 735 157 747 q 176 749 186 750 q 195 751 203 751 q 248 751 280 738 q 312 724 312 695 q 312 691 310 681 z m 328 -66 q 328 -128 268 -162 q 215 -192 138 -192 q 117 -192 90 -188 q 64 -185 32 -166 q 0 -147 0 -123 q 0 -118 6 -106 q 11 -94 22 -89 q 33 -84 48 -84 q 60 -84 65 -84 q 79 -84 79 -75 l 79 378 q 79 392 42 412 q 5 431 10 453 q 16 482 42 500 q 46 503 97 529 q 168 565 180 571 q 245 601 280 601 q 328 601 328 552 z"},"i":{"x_min":0,"x_max":428,"ha":428,"o":"m 324 640 q 303 602 258 582 q 213 562 159 562 q 106 562 73 575 q 30 592 30 631 q 30 673 88 702 q 147 730 213 730 q 255 730 292 708 q 329 687 329 658 q 329 650 324 640 z m 396 99 q 406 83 406 68 q 406 33 350 15 q 295 -3 225 -3 q 211 -3 198 -3 q 184 -3 171 -4 q 132 -4 106 3 q 81 10 42 36 q 25 48 25 67 q 25 95 54 108 q 76 117 88 128 q 104 143 104 162 l 104 322 q 104 348 62 370 q 34 385 21 400 q 16 407 16 412 q 16 426 37 445 q 52 459 69 469 q 126 503 168 523 q 247 561 289 561 q 310 561 322 552 q 333 542 333 520 l 333 156 q 333 138 357 126 q 389 110 396 99 z"},"y":{"x_min":0,"x_max":669,"ha":669,"o":"m 675 479 q 672 461 624 443 q 601 434 598 422 q 571 318 544 214 q 511 98 472 27 q 422 -64 342 -131 q 305 -162 259 -178 q 222 -191 194 -191 q 131 -191 78 -158 q 20 -122 20 -70 q 20 -64 22 -52 q 33 -6 42 11 q 58 40 80 44 q 102 48 114 48 q 145 48 167 31 q 189 14 202 -25 q 211 -51 221 -61 q 231 -71 243 -71 q 269 -71 269 -38 q 269 1 236 79 q 212 136 158 240 q 114 322 71 405 q 63 419 38 430 q 13 442 4 454 q -4 466 -4 478 q -4 498 14 516 q 32 534 64 542 q 97 550 140 556 q 184 562 216 562 q 254 562 282 558 q 309 553 339 541 q 356 535 368 519 q 380 503 380 484 q 380 472 373 462 q 363 448 358 438 q 352 427 352 416 q 352 407 356 399 q 381 347 384 343 q 398 321 418 319 q 435 319 447 337 q 459 355 462 374 q 464 392 465 400 q 466 408 466 414 q 466 425 463 436 q 460 448 444 462 q 428 476 428 496 q 428 503 433 513 q 446 534 486 546 q 526 559 571 559 q 629 559 658 541 q 665 537 671 527 q 677 517 677 501 q 677 493 675 479 z"},"@":{"x_min":0,"x_max":924,"ha":924,"o":"m 463 344 q 467 362 467 366 q 467 375 458 392 q 454 399 445 399 q 430 399 419 383 q 414 375 414 364 q 414 357 417 348 q 420 339 424 332 q 428 326 437 326 q 458 326 463 344 z m 678 152 q 681 158 685 158 q 691 158 696 138 q 700 117 700 93 q 700 77 696 69 q 616 16 517 1 q 500 -2 474 -3 q 448 -4 445 -4 q 298 -4 186 77 q 69 161 37 301 q 27 342 27 389 q 27 526 114 638 q 201 750 338 791 q 366 800 396 804 q 425 808 457 808 q 612 808 737 710 q 862 613 883 464 q 886 443 886 425 q 886 324 799 286 q 746 263 661 263 l 621 263 q 564 263 531 269 q 479 278 472 302 q 463 296 455 291 q 435 272 424 272 q 364 272 340 287 q 328 294 316 317 q 309 331 309 351 q 309 385 335 407 q 367 434 430 434 q 436 434 445 434 q 454 435 459 446 q 464 458 464 473 q 464 493 455 504 q 446 516 427 512 q 417 511 404 488 q 390 465 376 461 q 355 458 344 466 q 332 475 332 491 q 332 518 364 533 q 387 546 408 550 q 429 554 457 554 q 525 554 551 524 q 577 495 577 434 l 577 365 q 577 341 604 324 q 631 308 668 308 q 715 308 745 334 q 781 365 781 427 q 781 437 781 443 q 780 450 780 453 q 766 578 668 662 q 571 745 453 745 q 429 745 408 742 q 386 739 363 731 q 258 696 192 600 q 125 505 125 389 q 125 354 133 314 q 157 194 244 124 q 332 54 445 54 q 461 54 471 55 q 481 56 500 59 q 551 67 596 90 q 640 114 678 152 z"},".":{"x_min":0,"x_max":242,"ha":242,"o":"m 202 183 q 231 151 231 108 q 231 59 198 28 q 164 -2 121 -2 q 72 -2 42 32 q 11 65 11 108 q 11 157 44 188 q 78 218 121 218 q 170 218 202 183 z"},"p":{"x_min":0,"x_max":718,"ha":718,"o":"m 686 348 q 689 319 689 293 q 689 155 617 77 q 549 4 440 4 q 397 4 347 18 q 327 26 308 34 q 302 34 302 27 l 302 -72 q 302 -91 328 -98 q 354 -104 357 -115 q 360 -126 360 -135 q 360 -161 338 -174 q 316 -186 265 -186 q 232 -186 184 -180 q 99 -169 54 -151 q 9 -133 9 -110 q 9 -94 35 -78 q 61 -62 72 -48 q 83 -35 83 -12 l 83 297 q 83 305 83 309 q 83 337 79 348 q 72 366 47 370 q 22 373 5 386 q -12 398 -12 413 q -12 427 2 435 q 58 468 114 501 q 186 539 248 552 q 268 556 288 560 q 302 560 302 549 l 302 486 q 302 477 306 477 q 335 505 367 528 q 399 551 420 554 q 442 556 450 556 q 457 557 467 557 q 557 557 617 500 q 677 443 686 348 z m 375 126 q 410 136 428 172 q 446 208 446 255 q 446 315 420 362 q 394 408 351 408 q 327 408 314 392 q 302 375 302 350 l 302 225 q 302 184 318 154 q 335 124 362 124 q 367 124 375 126 z"},"X":{"x_min":0,"x_max":936,"ha":936,"o":"m 949 106 q 951 100 951 90 q 951 65 925 44 q 903 27 873 18 q 779 -7 663 -7 q 600 -7 551 2 q 502 11 481 28 q 460 46 460 66 q 460 83 470 94 q 474 99 503 118 q 524 132 517 141 q 488 189 472 215 q 441 264 421 264 q 412 264 405 256 q 379 225 354 194 q 332 164 320 135 q 315 122 342 110 q 369 97 373 71 q 374 66 374 57 q 374 32 362 16 q 351 -1 330 -1 q 301 -1 231 -3 q 161 -5 159 -5 q 92 -5 52 4 q 11 13 3 35 q -5 57 -5 74 q -5 92 4 104 q 12 116 32 118 q 97 125 99 125 q 133 132 149 153 l 320 382 l 82 656 q 74 665 35 682 q 8 694 8 724 q 8 780 103 796 q 150 804 278 804 q 405 804 448 792 q 491 780 491 735 q 491 712 476 695 q 461 678 446 661 q 446 658 449 653 q 496 598 520 603 q 533 606 543 617 q 553 628 588 673 q 597 684 559 707 q 537 721 535 734 q 528 781 586 795 q 623 804 722 804 q 807 804 832 799 q 887 788 887 748 q 887 742 885 728 q 883 715 832 708 q 782 700 767 682 l 596 477 l 864 150 q 875 137 910 130 q 944 122 949 106 z"},"*":{"x_min":0,"x_max":354,"ha":354,"o":"m 328 635 q 324 631 293 617 q 268 606 268 589 q 267 576 281 559 q 295 542 295 537 q 295 523 290 512 q 286 502 274 493 q 262 484 246 484 q 228 484 213 497 q 210 500 200 516 q 191 533 181 533 q 167 533 156 520 q 145 507 136 496 q 127 488 112 488 q 93 488 80 500 q 67 512 67 535 q 67 547 80 573 q 87 587 87 592 q 87 597 84 602 q 77 609 63 614 q 49 618 40 623 q 25 632 25 658 q 25 672 31 683 q 37 694 52 700 q 68 707 81 707 q 88 707 94 705 q 112 697 119 697 q 128 697 132 710 q 136 722 136 751 q 135 767 150 776 q 165 784 183 784 q 225 784 225 751 q 225 720 230 709 q 236 698 247 698 q 250 698 258 700 q 265 703 272 704 q 280 706 288 706 q 309 706 324 691 q 329 686 333 681 q 341 671 341 660 q 341 648 328 635 z"},"Y":{"x_min":0,"x_max":879,"ha":879,"o":"m 875 705 q 861 695 837 690 q 786 680 749 646 q 648 555 644 551 q 596 497 596 432 l 596 177 q 596 151 630 138 q 664 124 670 108 q 677 92 677 76 q 677 29 599 11 q 547 -1 448 -1 l 402 -1 q 307 -1 268 9 q 207 25 207 70 q 207 80 211 94 q 215 108 265 128 q 286 137 286 150 l 286 406 q 286 437 173 555 q 64 669 47 671 q -10 677 -10 719 q -10 737 2 755 q 27 794 180 800 q 228 802 334 802 q 366 802 412 786 q 458 771 467 749 q 472 737 444 696 q 429 675 432 658 q 437 627 460 602 q 483 578 511 578 q 519 578 523 579 q 541 583 551 595 q 556 601 573 646 q 575 651 575 659 q 575 673 558 692 q 541 711 541 722 q 541 725 543 731 q 558 767 612 784 q 667 802 738 802 q 817 802 864 784 q 876 780 882 768 q 888 755 888 741 q 888 716 875 705 z"},"c":{"x_min":0,"x_max":602,"ha":602,"o":"m 576 383 q 571 339 540 319 q 516 303 478 303 q 460 303 444 306 q 428 310 413 315 q 389 324 368 373 q 347 422 318 422 q 282 422 267 402 q 252 383 252 350 q 252 325 260 299 q 267 273 276 261 q 305 219 333 202 q 361 185 390 185 q 411 185 444 196 q 476 206 479 207 q 481 208 490 210 q 500 211 506 211 q 533 211 546 194 q 560 177 560 151 q 560 115 538 89 q 500 42 421 16 q 356 -5 292 -5 q 281 -5 270 -5 q 261 -3 258 -3 q 164 10 107 70 q 47 133 27 250 q 24 265 24 282 q 24 383 101 466 q 189 561 327 561 q 351 561 377 558 q 473 546 530 497 q 577 456 577 401 q 577 389 576 383 z"},"!":{"x_min":0,"x_max":242,"ha":242,"o":"m 226 624 q 226 533 207 446 q 188 359 160 300 q 153 286 140 279 q 127 272 111 272 q 91 272 76 285 q 54 305 32 430 q 10 556 10 630 q 10 693 16 717 q 27 760 64 780 q 93 796 124 796 q 159 796 190 774 q 212 759 220 736 q 228 714 228 683 q 228 674 227 654 q 226 634 226 624 z m 190 30 q 160 -4 111 -4 q 71 -4 43 21 q 9 51 9 100 q 9 140 34 168 q 64 202 113 202 q 153 202 181 177 q 215 147 215 98 q 215 58 190 30 z"},"/":{"x_min":0,"x_max":442,"ha":442,"o":"m 433 609 q 414 576 358 486 q 280 360 235 270 q 200 201 172 147 q 137 81 103 15 q 97 1 78 1 q 55 1 28 20 q 2 38 10 51 q 21 67 28 78 q 67 138 91 180 q 115 221 143 276 q 209 407 223 432 q 247 477 316 593 q 342 637 352 657 q 358 667 370 667 q 392 667 416 645 q 441 623 433 609 z"},"[":{"x_min":0,"x_max":370,"ha":370,"o":"m 350 85 q 371 57 371 29 q 371 -6 338 -28 q 306 -50 267 -50 l 119 -50 q 67 -50 52 -12 q 36 26 36 121 l 36 587 q 36 687 49 718 q 66 758 118 758 l 266 758 q 304 758 337 733 q 370 708 370 673 q 370 662 367 651 q 364 640 349 622 q 341 612 316 608 q 292 603 292 589 l 292 118 q 292 105 317 100 q 342 96 350 85 z"},"6":{"x_min":0,"x_max":666,"ha":666,"o":"m 624 190 q 594 91 515 40 q 436 -11 331 -11 q 321 -11 309 -10 q 297 -9 290 -9 q 179 1 115 76 q 76 122 31 281 q 29 286 28 298 q 26 310 26 324 q 26 431 125 572 q 219 706 282 718 q 290 720 304 720 q 325 720 342 714 q 360 707 407 678 q 430 663 430 637 q 430 620 419 609 q 390 577 362 546 q 327 504 327 483 q 327 476 330 471 q 353 477 368 479 q 417 488 450 488 q 492 488 520 477 q 583 450 612 387 q 635 337 635 270 q 635 245 632 226 q 629 206 624 190 z m 394 251 q 386 283 367 309 q 345 340 324 336 q 298 331 288 316 q 277 302 277 281 q 277 264 282 246 q 283 241 294 216 q 304 190 322 169 q 339 148 358 148 q 361 148 367 150 q 388 157 396 168 q 405 180 405 196 q 405 209 400 226 q 395 244 394 251 z"},"r":{"x_min":0,"x_max":584,"ha":584,"o":"m 565 364 q 543 330 520 315 q 496 300 471 300 q 438 300 403 325 q 370 355 337 386 l 337 154 q 337 137 370 128 q 404 120 415 84 q 418 73 418 64 q 418 30 379 13 q 349 0 302 0 l 83 0 q 55 0 39 21 q 23 42 23 68 q 23 89 34 102 q 37 106 69 124 q 94 138 94 156 l 94 369 q 94 383 70 392 q 47 401 43 408 q 32 427 32 446 q 32 470 49 480 q 80 499 149 524 q 239 557 290 557 q 305 557 317 554 q 329 551 334 528 q 338 506 338 478 q 338 466 338 461 q 359 496 377 520 q 395 544 416 550 q 437 557 455 557 q 507 557 546 520 q 586 482 586 431 q 586 399 565 364 z"},"2":{"x_min":0,"x_max":694,"ha":694,"o":"m 687 108 q 687 50 648 -2 q 608 -55 571 -55 q 549 -55 530 -28 q 510 0 494 0 l 71 0 q 46 0 35 8 q 24 15 24 27 q 24 38 33 54 q 42 70 53 85 q 55 85 114 153 q 187 237 229 299 q 291 390 291 435 q 291 447 289 452 q 282 471 264 476 q 246 480 213 480 q 194 480 156 448 q 119 415 92 415 q 67 415 38 434 q 25 444 25 466 q 25 514 70 569 q 125 636 216 670 q 290 698 372 698 q 451 698 514 672 q 578 645 611 594 q 640 548 640 502 q 640 448 603 393 q 602 391 547 325 q 535 310 497 279 q 466 253 460 235 q 458 231 458 228 q 458 223 458 221 q 458 202 470 190 q 482 178 500 178 q 538 178 566 212 q 593 247 638 247 q 669 247 680 215 q 687 194 687 145 q 687 132 687 123 q 687 114 687 108 z"},"{":{"x_min":0,"x_max":405,"ha":405,"o":"m 387 754 q 390 746 390 740 q 390 726 363 707 q 346 695 339 685 q 309 642 300 569 q 295 527 295 421 q 295 412 281 387 q 277 379 266 362 q 276 346 280 338 q 295 310 295 301 l 295 250 q 295 170 302 126 q 308 83 336 40 q 341 33 368 6 q 390 -16 390 -27 q 390 -37 378 -44 q 376 -46 370 -47 q 365 -48 359 -48 q 322 -48 258 -16 q 193 16 129 70 q 96 99 79 159 q 68 200 56 299 q 55 310 38 336 q 33 345 20 362 q 31 379 36 388 q 53 417 54 427 q 64 528 73 558 q 93 625 152 670 q 196 703 264 732 q 333 761 368 761 q 384 761 387 754 z"},"9":{"x_min":0,"x_max":619,"ha":619,"o":"m 592 412 q 593 404 594 396 q 594 389 594 379 q 594 256 488 111 q 391 -21 322 -37 q 318 -38 307 -38 q 268 -38 222 -12 q 176 14 176 44 q 176 60 188 72 q 232 116 256 142 q 301 190 301 213 q 301 219 299 222 q 276 216 262 214 q 214 205 181 205 q 139 205 113 216 q 51 242 22 306 q -1 356 -1 423 q -1 472 11 503 q 49 603 134 652 q 220 702 338 702 q 439 702 506 624 q 574 547 592 412 z m 335 476 q 323 504 309 522 q 291 545 272 545 q 269 545 263 543 q 242 535 234 524 q 225 512 225 496 q 225 484 230 468 q 234 452 236 442 q 244 409 262 384 q 284 353 305 357 q 330 362 340 376 q 351 391 351 412 q 351 429 346 447 q 345 452 335 476 z"}," ":{"x_min":0,"x_max":252,"ha":252,"o":""},"I":{"x_min":0,"x_max":482,"ha":482,"o":"m 442 136 q 463 107 463 79 q 463 44 431 22 q 399 1 359 1 q 301 1 243 0 q 185 0 127 0 q 86 0 53 22 q 20 45 20 78 q 20 98 34 118 q 41 128 68 141 q 96 154 96 171 l 96 632 q 96 649 67 661 q 38 673 33 685 q 23 708 23 729 q 23 765 53 784 q 83 804 126 804 l 358 804 q 397 804 430 780 q 463 755 463 720 q 463 695 441 667 q 433 657 408 652 q 384 648 384 634 l 384 169 q 384 156 409 152 q 434 147 442 136 z"},"H":{"x_min":0,"x_max":946,"ha":946,"o":"m 913 70 q 913 30 864 13 q 816 -4 734 -4 q 690 -4 652 -1 q 615 2 563 8 q 539 10 524 27 q 509 44 509 69 q 509 77 512 88 q 519 118 550 132 q 581 145 581 163 l 581 355 q 581 367 552 374 q 523 381 484 381 q 439 381 406 372 q 373 364 373 347 l 373 161 q 373 144 408 131 q 442 118 442 88 q 442 36 384 15 q 340 -1 258 -1 q 234 -1 204 0 q 173 1 139 3 q 82 3 52 22 q 23 40 23 72 q 23 86 30 102 q 38 119 77 132 q 116 144 116 163 l 116 628 q 116 652 77 673 q 38 694 34 708 q 31 722 31 732 q 31 772 80 790 q 129 807 208 807 q 258 807 306 802 q 353 796 395 786 q 419 780 431 770 q 443 760 443 740 q 443 728 440 720 q 437 711 404 685 q 375 662 375 631 l 375 489 q 375 478 408 472 q 440 465 487 465 q 526 465 554 472 q 581 478 581 489 l 581 660 q 581 675 551 688 q 521 701 516 714 q 511 727 511 738 q 511 774 570 790 q 629 805 715 805 q 767 805 802 802 q 836 799 862 794 q 888 788 908 770 q 927 751 927 729 q 927 709 907 695 q 869 670 858 648 q 848 625 848 589 q 848 577 848 570 l 848 158 q 848 136 880 118 q 913 101 913 70 z"},"4":{"x_min":0,"x_max":684,"ha":684,"o":"m 656 102 q 656 86 628 71 q 599 56 599 39 l 599 -81 q 599 -116 559 -137 q 524 -155 472 -155 q 420 -155 382 -136 q 344 -117 344 -81 q 344 -75 344 -66 q 344 -57 345 -44 q 345 11 344 24 q 342 36 336 36 l 74 36 q 46 36 32 60 q 17 84 17 119 q 17 166 41 195 l 406 644 q 426 668 462 684 q 499 700 532 700 q 556 700 570 690 q 584 681 584 660 l 584 232 q 584 220 604 220 q 609 220 621 221 q 633 222 638 222 q 656 222 656 210 z m 338 230 l 338 414 q 338 421 331 424 q 324 427 318 427 q 306 427 301 420 l 169 241 q 162 230 162 219 q 162 209 169 209 l 322 209 q 330 209 334 215 q 338 221 338 230 z"},"~":{"x_min":0,"x_max":635,"ha":635,"o":"m 560 673 q 542 624 510 586 q 462 529 401 529 q 393 530 389 530 q 362 530 335 546 q 321 554 288 581 q 262 601 234 601 q 207 601 171 580 q 147 566 100 530 q 93 525 89 525 q 78 525 78 542 q 78 552 86 576 q 103 621 144 664 q 200 722 262 722 q 270 721 274 721 q 301 721 328 705 q 342 697 375 670 q 400 649 427 649 q 456 649 496 679 q 505 686 546 719 q 553 724 558 724 q 568 724 568 708 q 568 693 560 673 z"},"D":{"x_min":0,"x_max":950,"ha":950,"o":"m 925 406 q 925 228 830 127 q 757 50 628 19 q 548 0 446 0 l 97 0 q 63 0 36 16 q 10 33 10 57 q 10 70 22 85 q 30 94 68 106 q 106 117 106 139 l 106 638 q 106 663 96 673 q 85 683 43 700 q 24 708 24 727 q 24 741 34 758 q 45 775 70 796 q 75 800 173 802 q 271 804 363 804 q 432 804 451 804 q 470 804 493 804 q 695 804 810 700 q 925 596 925 406 z m 610 511 q 594 588 543 635 q 492 682 422 682 q 399 682 373 676 l 373 142 q 404 124 432 116 q 459 107 483 107 q 556 107 593 190 q 624 260 624 371 q 624 447 610 511 z"},"^":{"x_min":0,"x_max":676,"ha":676,"o":"m 552 546 q 561 539 561 532 q 561 517 514 517 q 488 517 434 546 q 379 575 331 617 q 283 575 231 546 q 179 517 154 517 q 129 517 118 521 q 108 525 108 532 q 108 540 116 546 q 182 603 189 610 q 228 646 271 704 q 290 730 309 746 q 323 758 332 758 q 346 758 364 742 q 382 726 397 704 q 438 645 457 625 q 484 597 552 546 z"},"0":{"x_min":0,"x_max":727,"ha":727,"o":"m 657 529 q 701 457 701 363 q 701 265 656 178 q 610 90 539 48 q 454 -4 363 -4 q 276 -4 200 42 q 124 89 71 180 q 49 218 37 264 q 25 309 25 353 q 25 450 74 534 q 123 617 210 661 q 283 698 363 698 q 451 698 530 654 q 608 609 657 529 z m 418 371 q 407 417 396 464 q 378 511 337 519 q 333 520 325 520 q 304 520 296 503 q 287 486 287 455 q 287 426 291 402 q 295 378 311 311 q 332 221 335 213 q 355 163 398 163 q 425 163 436 179 q 446 195 446 225 q 446 259 432 317 q 425 344 418 371 z"},"F":{"x_min":0,"x_max":768,"ha":768,"o":"m 771 711 q 774 685 774 678 q 775 670 775 654 q 775 615 763 597 q 747 573 709 573 q 691 573 636 627 q 581 681 522 681 l 396 681 q 381 681 381 663 l 381 498 q 381 485 388 480 q 396 476 418 476 q 452 476 461 479 q 484 487 489 516 q 494 546 512 569 q 530 592 550 588 q 581 582 600 525 q 620 468 620 397 q 620 326 602 280 q 581 226 540 216 q 515 210 498 280 q 482 350 433 350 q 429 350 425 350 q 417 348 414 348 q 381 343 381 306 l 381 177 q 381 124 420 120 q 459 117 468 111 q 494 94 494 48 q 494 27 481 14 q 468 0 438 0 l 102 0 q 66 0 49 17 q 32 34 32 58 q 32 73 40 88 q 47 104 84 114 q 120 125 120 144 l 120 606 q 120 646 102 669 q 84 692 36 714 q 22 720 22 738 q 22 760 42 782 q 62 804 87 804 l 678 804 q 716 804 742 778 q 767 753 771 711 z"},"`":{"x_min":0,"x_max":850,"ha":850,"o":"m 539 889 q 548 882 548 875 q 548 860 501 860 q 445 860 369 891 q 269 932 252 995 q 247 1015 247 1030 q 247 1067 268 1093 q 288 1119 322 1119 q 351 1119 384 1099 q 396 1092 462 978 q 495 922 539 889 z"},"k":{"x_min":0,"x_max":781,"ha":781,"o":"m 808 74 q 809 70 809 58 q 809 34 801 20 q 789 0 762 0 l 577 0 q 559 0 541 2 q 523 4 518 8 q 500 22 448 104 q 405 172 396 186 q 386 201 373 213 q 357 228 348 228 q 338 228 337 213 q 337 205 337 199 q 337 185 336 166 q 335 148 334 130 q 334 117 374 92 q 392 81 388 68 q 379 38 354 22 q 330 5 301 5 q 271 5 230 2 q 189 0 180 0 q 166 0 148 1 q 130 2 103 6 q 76 9 50 28 q 19 50 22 80 q 22 99 56 115 q 91 131 91 143 l 91 581 q 91 597 31 621 q 5 632 10 650 q 20 686 63 709 q 77 716 148 743 q 176 753 204 760 q 232 766 260 766 q 287 766 302 757 q 318 748 318 728 l 318 425 q 318 394 341 394 q 357 394 388 410 q 420 427 433 436 q 453 451 453 465 q 453 473 448 480 q 443 486 430 496 q 416 506 416 513 q 416 517 421 524 q 438 546 468 553 q 498 560 542 560 q 556 560 566 560 q 576 560 583 560 q 657 560 689 544 q 721 528 721 500 q 721 473 694 466 q 667 459 640 452 q 593 429 588 426 q 561 409 561 391 q 561 384 565 377 q 602 307 639 257 q 689 192 724 146 q 734 133 773 112 q 805 95 808 74 z"},"u":{"x_min":0,"x_max":752,"ha":752,"o":"m 729 115 q 738 61 631 27 q 590 14 535 3 q 533 2 512 -1 q 490 -4 479 -4 q 463 -4 454 0 q 446 3 446 13 l 446 80 q 446 97 438 97 q 431 97 391 62 q 347 23 318 13 q 278 -1 243 -1 q 171 -1 128 49 q 82 103 82 200 l 82 413 q 82 424 56 432 q 30 439 24 450 q 19 462 19 475 q 19 510 74 532 q 113 548 152 552 q 192 555 204 556 q 216 557 227 557 q 257 557 278 553 q 299 549 312 537 q 322 529 322 506 q 322 490 314 450 q 306 410 306 391 l 306 251 q 306 180 322 162 q 337 144 391 144 q 423 144 435 171 q 444 191 444 228 q 444 241 444 250 q 443 260 443 267 l 443 411 q 443 433 416 447 q 389 461 389 483 q 389 513 456 536 q 523 560 592 560 q 631 560 658 551 q 667 547 672 530 q 677 513 677 464 q 677 446 677 438 l 677 171 q 677 157 710 138 q 727 128 729 115 z"},"]":{"x_min":0,"x_max":392,"ha":392,"o":"m 338 121 q 338 28 324 -7 q 307 -50 255 -50 l 107 -50 q 68 -50 36 -28 q 3 -6 3 30 q 3 55 24 85 q 31 95 56 100 q 82 104 82 118 l 82 589 q 82 602 58 606 q 34 611 24 623 q 14 635 9 648 q 4 662 4 674 q 4 709 37 734 q 70 758 108 758 l 256 758 q 308 758 323 722 q 338 685 338 587 z"},"U":{"x_min":0,"x_max":998,"ha":998,"o":"m 987 740 q 974 708 941 701 q 884 690 884 567 l 884 277 q 884 143 761 64 q 649 -8 490 -8 q 334 -8 228 60 q 110 136 110 268 l 110 632 q 110 656 63 674 q 16 691 19 714 q 23 739 56 759 q 103 787 202 800 q 227 804 270 804 q 351 804 416 788 q 481 771 481 740 q 481 712 454 698 q 393 667 393 585 q 393 563 392 540 q 392 517 392 492 q 392 429 392 386 q 392 343 393 303 q 393 243 445 207 q 497 171 566 171 q 633 171 676 205 q 725 244 725 315 l 725 637 q 725 678 664 710 q 636 725 640 752 q 643 773 667 783 q 677 787 713 796 q 732 801 761 804 q 790 807 813 807 q 889 807 943 786 q 997 765 987 740 z"},"o":{"x_min":0,"x_max":666,"ha":666,"o":"m 592 123 q 550 61 483 28 q 416 -4 336 -4 q 243 -4 163 42 q 98 81 62 146 q 27 211 27 284 q 27 383 88 450 q 131 498 204 527 q 278 556 355 556 q 409 556 454 542 q 500 527 535 495 q 587 448 614 392 q 642 337 642 277 q 642 198 592 123 z m 397 294 q 388 373 366 411 q 348 441 322 441 q 293 441 281 410 q 269 378 269 331 q 269 319 269 307 q 271 292 271 285 q 279 200 290 168 q 305 125 340 125 q 348 125 352 126 q 381 131 392 154 q 403 177 403 215 q 403 232 401 254 q 399 276 397 294 z"},"N":{"x_min":0,"x_max":983,"ha":983,"o":"m 958 753 q 958 720 928 705 q 861 671 861 550 l 861 46 q 861 24 848 10 q 836 -3 812 -3 q 790 -3 758 12 q 660 61 562 145 q 496 202 418 284 q 345 361 332 370 q 324 375 317 375 q 301 375 293 350 q 285 325 285 297 l 285 160 q 285 142 307 132 q 359 107 361 95 q 363 83 363 78 q 363 22 290 6 q 209 -1 192 -2 q 176 -4 165 -4 q 133 -4 104 4 q 74 11 64 25 q 51 44 51 60 q 51 76 65 93 q 97 132 97 137 l 97 665 q 97 680 58 693 q 20 706 20 729 q 20 772 58 790 q 96 809 193 809 q 274 809 351 756 q 387 731 495 631 q 597 536 682 483 q 684 481 688 480 q 691 479 693 479 q 710 479 715 522 q 717 539 717 591 q 717 661 698 679 q 670 692 655 706 q 636 725 636 743 q 636 770 682 788 q 727 806 803 806 q 872 806 903 799 q 958 787 958 753 z"},"G":{"x_min":0,"x_max":856,"ha":856,"o":"m 911 353 q 921 340 921 321 q 921 295 906 274 q 890 254 871 258 q 856 261 845 261 q 806 261 800 204 q 794 146 783 134 q 731 77 679 51 q 641 32 556 7 q 508 -7 453 -7 q 339 -7 242 47 q 127 111 61 236 q 25 305 25 391 q 25 522 99 627 q 184 748 341 789 q 362 794 402 799 q 442 804 477 804 q 524 804 558 798 q 591 793 624 778 q 636 773 646 773 q 659 773 684 780 q 708 788 716 788 q 728 788 737 783 q 761 770 778 744 q 795 719 806 661 q 808 653 812 632 q 817 611 817 594 q 817 572 808 559 q 800 546 776 539 q 752 532 729 532 q 681 532 639 575 q 621 594 603 614 q 547 670 482 670 q 415 670 368 612 q 320 554 320 463 q 320 361 346 302 q 387 209 504 160 q 523 152 545 152 q 559 152 571 156 q 583 161 591 172 q 606 194 606 226 q 606 244 600 254 q 593 263 579 259 q 571 256 560 256 q 543 256 524 264 q 506 271 495 286 q 488 296 483 310 q 478 323 478 338 q 478 368 501 379 q 550 402 602 413 q 654 424 704 424 q 774 424 829 405 q 884 386 911 353 z"},"q":{"x_min":0,"x_max":664,"ha":664,"o":"m 646 -88 q 668 -100 668 -118 q 668 -138 639 -156 q 610 -173 562 -181 q 538 -185 490 -190 q 442 -196 409 -196 q 361 -196 340 -180 q 319 -165 319 -139 q 319 -129 322 -118 q 324 -108 352 -105 q 379 -102 379 -82 l 379 17 q 379 24 369 21 q 343 10 334 8 q 293 -3 258 -3 q 156 -3 95 79 q 28 169 28 338 q 28 429 100 494 q 177 563 298 563 q 346 563 393 553 q 414 549 454 508 q 472 490 481 490 q 488 490 494 497 q 509 516 525 535 q 547 559 562 559 q 569 559 579 551 q 591 539 594 526 q 598 513 598 494 q 598 483 598 478 l 598 -22 q 598 -47 610 -61 q 619 -71 646 -88 z m 379 215 l 379 340 q 379 373 368 386 q 356 398 330 398 q 286 398 260 353 q 234 308 234 249 q 234 199 252 162 q 270 126 306 116 q 330 109 354 137 q 379 165 379 215 z"},"d":{"x_min":0,"x_max":753,"ha":753,"o":"m 750 123 q 757 115 757 105 q 757 86 716 65 q 680 47 645 30 q 613 11 580 2 q 548 -6 518 -6 q 471 -6 456 12 q 449 20 449 28 q 449 30 451 41 q 453 52 450 57 q 443 72 432 72 q 423 72 384 42 q 346 12 320 7 q 294 2 290 2 q 282 1 266 1 q 242 1 217 6 q 192 12 162 24 q 85 52 49 137 q 22 201 22 285 q 22 319 27 342 q 45 438 106 498 q 183 573 315 573 q 332 573 358 561 q 418 533 420 533 q 429 533 429 543 l 429 606 q 429 625 395 632 q 361 638 348 651 q 340 659 340 671 q 340 683 348 696 q 364 722 401 731 q 436 737 471 744 q 517 757 542 763 q 590 775 616 775 q 639 775 651 768 q 663 760 663 741 l 663 168 q 663 151 669 142 q 675 132 696 132 q 713 133 722 133 q 741 133 750 123 z m 432 309 q 432 330 432 340 q 432 411 418 432 q 403 453 372 453 q 327 453 304 406 q 282 358 282 297 q 282 228 295 192 q 315 138 363 138 q 407 138 422 194 q 432 231 432 309 z"},"1":{"x_min":0,"x_max":608,"ha":608,"o":"m 587 104 q 595 92 595 75 q 595 59 588 41 q 587 38 584 33 q 569 28 503 17 q 359 -7 247 -7 q 177 -7 125 2 q 73 10 38 32 q 20 43 20 67 q 20 92 40 100 q 47 103 108 106 q 170 108 170 130 l 170 466 q 170 486 148 496 q 125 505 98 505 q 85 505 80 504 q 60 500 44 516 q 28 532 28 550 q 28 556 31 561 q 69 623 202 658 q 335 694 491 694 q 503 694 514 669 q 521 653 521 641 q 521 623 508 616 q 478 604 468 600 q 442 589 442 567 l 442 154 q 442 126 510 122 q 578 118 587 104 z"},"5":{"x_min":0,"x_max":656,"ha":656,"o":"m 603 167 q 541 53 429 13 q 365 -10 264 -10 q 212 -10 126 17 q 39 44 37 58 q 35 73 35 83 q 35 103 42 118 q 50 132 60 134 q 71 135 84 135 q 102 135 134 131 q 207 122 225 122 q 244 122 252 124 q 260 125 270 131 q 286 141 294 154 q 302 167 302 183 q 302 200 291 224 q 284 240 107 289 q 31 310 31 343 q 31 351 33 356 q 44 389 74 520 q 97 620 123 665 q 159 728 219 728 l 573 728 q 596 728 606 714 q 617 701 617 678 q 617 637 589 593 q 561 549 528 545 q 453 535 356 534 q 260 533 249 533 q 241 533 235 522 q 229 510 229 498 q 229 482 240 482 q 284 482 330 481 q 375 480 426 467 q 515 444 569 380 q 623 317 623 245 q 623 205 603 167 z"}}}
